<?xml version="1.0" standalone="no"?>
<!DOCTYPE svg PUBLIC "-//W3C//DTD SVG 20010904//EN"
 "http://www.w3.org/TR/2001/REC-SVG-20010904/DTD/svg10.dtd">
<svg version="1.0" xmlns="http://www.w3.org/2000/svg"
 width="500.000000pt" height="500.000000pt" viewBox="0 0 500.000000 500.000000"
 preserveAspectRatio="xMidYMid meet">

<g transform="translate(0.000000,500.000000) scale(0.100000,-0.100000)"
fill="#000000" stroke="none">
<path d="M1730 4802 c-72 -24 -117 -48 -128 -69 -8 -13 -34 -18 -128 -25 -66
-4 -134 -10 -151 -13 -63 -11 -67 -80 -6 -91 25 -5 52 -24 92 -63 31 -32 69
-63 84 -69 39 -17 25 3 -22 28 -41 24 -76 73 -67 96 4 11 27 14 100 14 l94 0
21 -67 c29 -91 28 -93 -18 -90 -22 1 -43 6 -47 10 -10 9 -24 9 -24 0 0 -13 52
-33 82 -33 35 0 65 -33 79 -85 18 -64 32 -87 62 -100 34 -14 77 -85 77 -126 0
-21 7 -32 30 -44 16 -8 34 -15 40 -15 6 0 30 -18 53 -40 79 -73 102 -201 76
-415 -6 -55 -12 -122 -13 -150 l-1 -50 147 -5 c80 -3 150 -8 154 -12 4 -5 5
-8 3 -8 -179 -9 -294 -21 -300 -31 -4 -7 -5 -22 -3 -33 46 -210 56 -410 22
-478 -17 -36 -33 -36 -22 0 19 58 8 232 -24 385 l-31 149 16 111 c20 143 22
358 5 415 -25 81 -106 147 -163 132 -25 -7 -120 -71 -186 -125 -37 -30 -42
-62 -18 -109 8 -15 15 -40 15 -55 0 -15 9 -47 21 -71 14 -29 19 -54 16 -77 -3
-18 -2 -33 2 -33 14 0 31 -50 31 -88 0 -20 7 -50 15 -66 8 -15 15 -43 15 -60
0 -18 7 -41 15 -52 8 -10 15 -37 15 -59 0 -22 9 -59 20 -82 10 -23 18 -55 18
-71 -1 -16 6 -40 16 -53 9 -13 16 -43 16 -68 0 -25 6 -51 15 -61 8 -9 16 -36
16 -61 1 -24 12 -65 25 -90 l23 -47 84 -7 c74 -6 86 -9 94 -28 14 -34 7 -536
-8 -564 -11 -20 -8 -27 29 -67 47 -51 67 -110 59 -178 -6 -48 -31 -98 -49 -98
-6 0 -3 11 6 25 11 16 16 47 16 93 0 60 -4 74 -28 108 -50 68 -72 77 -153 62
-52 -10 -99 -45 -99 -75 0 -7 -4 -13 -10 -13 -13 0 -13 -111 1 -130 7 -11 9
-1 5 35 -14 130 78 192 149 99 23 -30 28 -46 28 -100 1 -54 -3 -68 -23 -89
-13 -13 -31 -27 -41 -30 -22 -7 -74 18 -88 42 -7 12 -11 13 -11 5 0 -18 66
-82 85 -82 12 0 15 -14 15 -57 1 -35 6 -66 15 -77 8 -11 15 -27 15 -37 0 -9
19 -34 41 -54 73 -66 199 -112 417 -152 125 -23 577 -26 687 -4 228 44 340 94
392 172 33 50 35 118 5 175 -20 38 -106 124 -125 124 -4 0 -35 14 -69 30 -69
35 -83 37 -73 13 16 -38 23 -88 18 -115 -13 -64 -99 -118 -243 -153 -112 -27
-390 -25 -518 4 -119 26 -200 63 -247 111 -75 77 -49 192 45 202 17 2 24 -1
22 -11 -6 -30 20 -80 58 -106 21 -14 71 -35 111 -45 67 -18 97 -22 257 -35 81
-7 230 11 309 36 78 25 117 67 109 113 -12 69 -26 215 -26 284 l0 74 -52 -7
c-29 -4 -71 -11 -93 -17 -65 -18 -389 -14 -460 5 -113 30 -145 41 -145 49 0 4
-7 8 -15 8 -8 0 -15 4 -15 10 0 10 31 6 121 -16 83 -20 379 -19 489 2 135 27
139 44 20 85 -63 21 -71 27 -89 64 -24 50 -42 116 -48 178 l-5 47 -60 0 c-32
0 -101 -5 -153 -12 -79 -9 -97 -9 -111 3 -15 12 -9 15 52 20 248 23 247 39 -3
39 l-171 0 -11 31 c-6 18 -11 35 -11 39 0 4 30 10 68 12 126 10 188 72 228
228 17 68 15 162 -4 250 -6 25 -12 61 -15 80 -3 19 -8 48 -12 63 -4 16 -3 45
3 65 21 72 42 193 42 240 0 60 -43 231 -67 269 -50 77 -132 133 -196 133 -29
0 -97 -27 -97 -39 0 -3 -12 -19 -26 -36 -25 -29 -28 -30 -135 -33 -125 -5
-152 5 -164 60 -4 18 -16 59 -26 92 -22 68 -25 126 -6 126 26 0 57 82 57 152
l0 68 41 21 c49 25 110 83 132 125 11 21 28 34 54 42 47 14 68 44 51 71 -17
27 -36 31 -176 31 -119 0 -124 1 -178 32 -72 40 -170 48 -254 20z m490 -167
c0 -33 -63 -100 -123 -131 -48 -24 -57 -13 -57 74 l0 62 90 0 c50 0 90 -2 90
-5z m1203 -2894 c24 -21 47 -76 47 -114 0 -17 -11 -45 -25 -63 -67 -87 -218
-130 -559 -159 -78 -7 -431 21 -458 36 -10 5 -32 9 -49 9 -17 0 -38 7 -47 16
-15 16 -14 16 18 10 122 -23 328 -37 490 -32 333 9 526 68 574 174 19 42 20
37 -32 146 -6 11 16 -1 41 -23z"/>
<path d="M1902 1928 c-15 -15 -16 -72 -2 -99 12 -21 50 -25 68 -7 17 17 15 64
-4 93 -18 27 -43 32 -62 13z"/>
<path d="M3646 970 c-78 -24 -130 -122 -131 -247 0 -79 1 -84 31 -114 27 -27
38 -31 88 -31 76 -1 124 31 162 107 35 73 45 185 20 234 -27 52 -97 73 -170
51z m82 -92 c27 -27 7 -155 -31 -195 -22 -25 -66 -30 -85 -11 -27 27 0 187 36
207 24 14 66 13 80 -1z"/>
<path d="M4000 973 c-36 -15 -72 -48 -90 -83 -11 -22 -20 -42 -20 -45 0 -3 19
-5 43 -5 36 0 44 4 59 30 13 23 24 30 48 30 28 0 30 -3 30 -35 0 -43 -41 -92
-146 -171 -63 -47 -74 -60 -74 -85 l0 -30 137 3 137 3 7 33 6 32 -76 0 -76 1
25 20 c92 76 122 107 140 143 27 56 26 98 -3 132 -19 22 -33 28 -78 30 -30 2
-61 1 -69 -3z"/>
<path d="M797 956 c-155 -58 -212 -274 -93 -359 25 -18 45 -22 101 -22 82 0
133 24 178 83 l29 37 -46 3 c-36 2 -54 -2 -78 -20 -89 -63 -176 2 -147 108 25
90 138 131 186 68 8 -11 25 -14 61 -12 l50 3 -14 35 c-29 72 -138 109 -227 76z"/>
<path d="M1403 958 c-9 -11 -73 -345 -73 -378 0 -7 40 -10 117 -8 l117 3 7 33
6 32 -68 0 c-37 0 -70 3 -72 8 -3 4 -2 25 2 47 l6 40 68 3 c44 2 67 7 67 15 0
7 3 22 6 35 6 21 4 22 -61 22 -65 0 -67 1 -61 23 3 12 6 30 6 40 0 15 10 17
75 17 71 0 75 1 81 25 13 50 3 55 -109 55 -72 0 -108 -4 -114 -12z"/>
<path d="M2125 960 c-3 -5 -19 -85 -35 -177 -17 -93 -32 -178 -35 -191 -5 -22
-3 -23 42 -20 l47 3 21 112 c11 61 23 114 26 117 3 3 31 -48 62 -114 l57 -120
45 0 c38 0 45 3 50 23 11 44 65 361 62 363 -2 2 -20 4 -40 6 -40 2 -56 -11
-57 -47 -1 -11 -9 -60 -18 -110 l-18 -90 -52 110 c-29 61 -56 116 -60 124 -10
17 -88 26 -97 11z"/>
<path d="M2656 955 c-82 -29 -140 -96 -155 -181 -30 -158 102 -251 255 -180
44 20 104 78 104 99 0 4 -20 7 -45 7 -31 0 -55 -8 -82 -26 -45 -30 -96 -27
-127 9 -28 33 -17 120 20 158 48 50 118 57 153 15 17 -21 111 -23 111 -3 0 8
-13 32 -30 55 -43 60 -120 77 -204 47z"/>
<path d="M3075 956 c-51 -19 -120 -92 -134 -142 -48 -172 73 -287 240 -229 53
19 82 45 117 105 22 37 27 58 27 112 0 72 -14 102 -68 142 -35 26 -127 32
-182 12z m138 -96 c10 -9 21 -35 23 -56 9 -75 -53 -149 -126 -149 -74 0 -107
67 -76 150 29 75 127 106 179 55z"/>
<path d="M4226 948 c-13 -49 -7 -68 20 -68 23 0 25 -3 20 -27 -10 -46 -46
-257 -46 -270 0 -9 16 -13 45 -13 52 0 44 -20 80 195 14 83 28 162 31 178 l6
27 -75 0 c-69 0 -75 -2 -81 -22z"/>
<path d="M1092 772 c-18 -103 -32 -190 -32 -194 0 -5 49 -8 109 -8 l109 0 4
30 c3 17 2 32 0 35 -3 3 -32 5 -64 5 l-60 0 6 28 c4 15 17 87 30 160 l23 132
-46 0 -46 0 -33 -188z"/>
<path d="M1778 888 c-21 -40 -67 -128 -103 -195 l-66 -123 49 0 c46 0 49 2 65
35 l17 36 78 -3 77 -3 3 -32 c3 -32 4 -33 53 -33 27 0 49 3 49 7 0 7 -57 323
-66 361 -4 20 -10 22 -62 22 l-58 0 -36 -72z m96 -120 l7 -58 -50 0 c-28 0
-51 2 -51 5 0 2 17 37 37 76 41 79 45 78 57 -23z"/>
<path d="M1840 368 c0 -11 38 -10 44 1 3 5 -5 8 -19 7 -14 0 -25 -4 -25 -8z"/>
<path d="M2620 368 c0 -11 38 -10 44 1 3 5 -5 8 -19 7 -14 0 -25 -4 -25 -8z"/>
<path d="M2796 369 c6 -11 44 -12 44 -1 0 4 -11 8 -25 8 -14 1 -22 -2 -19 -7z"/>
<path d="M2955 370 c-3 -5 -1 -10 4 -10 6 0 11 5 11 10 0 6 -2 10 -4 10 -3 0
-8 -4 -11 -10z"/>
<path d="M1520 276 c0 -76 17 -90 22 -18 l3 47 16 -44 c8 -25 20 -46 26 -48 5
-2 16 17 23 41 15 55 30 52 23 -4 -4 -26 -2 -40 6 -40 7 0 11 21 11 55 0 30 1
58 2 63 1 4 -5 8 -14 10 -11 2 -20 -11 -29 -43 -7 -25 -17 -45 -20 -45 -4 0
-14 19 -21 43 -8 23 -22 43 -31 45 -15 3 -17 -6 -17 -62z"/>
<path d="M1703 278 c-23 -62 -22 -88 1 -55 7 9 23 17 36 17 13 0 29 -8 36 -17
23 -32 24 -8 3 55 -28 82 -47 82 -76 0z m51 10 c5 -24 3 -28 -14 -28 -23 0
-23 0 -10 36 12 31 15 30 24 -8z"/>
<path d="M1823 324 c-8 -22 9 -47 37 -54 13 -3 25 -11 28 -18 6 -18 -28 -27
-49 -14 -10 7 -20 8 -24 2 -12 -20 59 -37 81 -19 26 21 16 49 -22 65 -40 17
-41 40 0 36 14 -1 26 2 26 8 0 17 -70 12 -77 -6z"/>
<path d="M1940 275 c0 -37 4 -65 10 -65 6 0 10 28 10 65 0 37 -4 65 -10 65 -6
0 -10 -28 -10 -65z"/>
<path d="M2005 328 c-9 -29 0 -112 13 -116 10 -3 13 4 12 24 -5 68 -1 70 31
22 17 -27 35 -48 40 -48 5 0 9 29 9 65 0 37 -4 65 -10 65 -5 0 -10 -19 -10
-42 l0 -43 -28 42 c-27 43 -49 54 -57 31z"/>
<path d="M2152 323 c-14 -27 -5 -41 34 -53 19 -6 34 -16 34 -21 0 -16 -31 -23
-50 -11 -22 13 -34 4 -19 -15 15 -17 63 -17 79 2 19 23 7 49 -28 60 -41 12
-40 41 1 37 15 -1 27 2 27 8 0 18 -68 12 -78 -7z"/>
<path d="M2270 275 c0 -37 4 -65 10 -65 6 0 10 14 10 30 0 38 10 38 35 0 11
-16 26 -30 34 -30 9 0 4 12 -13 35 l-27 35 21 30 c26 36 10 40 -18 5 -11 -14
-23 -25 -26 -25 -3 0 -6 11 -6 25 0 14 -4 25 -10 25 -6 0 -10 -28 -10 -65z"/>
<path d="M2401 321 c-20 -36 -13 -79 15 -97 55 -37 116 25 83 84 -19 36 -82
44 -98 13z m65 1 c33 -21 22 -92 -14 -92 -26 0 -42 20 -42 52 0 34 31 57 56
40z"/>
<path d="M2596 318 c-9 -12 -16 -33 -16 -45 0 -49 71 -83 100 -48 16 19 5 34
-12 17 -32 -32 -74 8 -61 57 6 25 39 37 59 20 16 -13 30 -6 19 10 -12 20 -73
13 -89 -11z"/>
<path d="M2720 275 c0 -37 4 -65 10 -65 6 0 10 28 10 65 0 37 -4 65 -10 65 -6
0 -10 -28 -10 -65z"/>
<path d="M2781 326 c-16 -20 -4 -43 30 -55 16 -6 29 -17 29 -27 0 -13 -6 -15
-37 -9 -33 6 -35 5 -24 -9 24 -28 91 -10 91 24 0 15 -31 40 -50 40 -10 0 -22
5 -26 11 -10 16 17 29 45 22 17 -4 22 -2 17 6 -10 15 -61 14 -75 -3z"/>
<path d="M2906 324 c-35 -34 -5 -114 42 -114 24 0 59 26 49 36 -4 4 -13 2 -19
-4 -32 -32 -74 4 -62 52 7 30 29 40 56 25 22 -12 34 -6 23 10 -10 17 -72 13
-89 -5z"/>
<path d="M3030 275 l0 -65 45 0 c25 0 45 5 45 10 0 6 -16 10 -35 10 -28 0 -35
4 -35 20 0 16 7 20 30 20 17 0 30 5 30 10 0 6 -14 10 -31 10 -41 0 -36 32 6
41 27 6 26 7 -12 8 l-43 1 0 -65z"/>
<path d="M3150 275 c0 -37 4 -65 10 -65 6 0 10 24 10 52 l0 53 32 -53 c44 -70
58 -68 55 8 -1 33 -6 59 -12 58 -5 -2 -8 -15 -6 -30 4 -41 -13 -40 -39 3 -37
58 -50 51 -50 -26z"/>
<path d="M3340 285 l0 -57 -30 7 c-37 8 -42 -12 -5 -21 34 -8 55 1 56 26 4 73
2 94 -9 98 -8 2 -12 -13 -12 -53z"/>
<path d="M3409 310 c-1 -16 -1 -41 -1 -55 0 -14 0 -29 1 -35 1 -5 19 -10 41
-10 22 0 40 5 40 10 0 6 -13 10 -30 10 -23 0 -30 4 -30 20 0 15 7 20 25 20 14
0 25 5 25 10 0 6 -11 10 -25 10 -18 0 -25 5 -25 19 0 15 8 21 33 24 28 3 26 4
-10 5 -41 2 -43 1 -44 -28z"/>
</g>
</svg>
